<?xml version="1.0" encoding="UTF-8" standalone="no"?>
<!-- Created with Inkscape (http://www.inkscape.org/) -->

<svg
   xmlns:dc="http://purl.org/dc/elements/1.1/"
   xmlns:cc="http://creativecommons.org/ns#"
   xmlns:rdf="http://www.w3.org/1999/02/22-rdf-syntax-ns#"
   xmlns:svg="http://www.w3.org/2000/svg"
   xmlns="http://www.w3.org/2000/svg"
   xmlns:sodipodi="http://sodipodi.sourceforge.net/DTD/sodipodi-0.dtd"
   xmlns:inkscape="http://www.inkscape.org/namespaces/inkscape"
   width="32"
   height="32"
   id="svg5048"
   version="1.1"
   inkscape:version="0.91 r13725"
   sodipodi:docname="Rebels.svg">
  <defs
     id="defs5050">
    <style
       id="current-color-scheme"
       type="text/css">      .ColorScheme-Text {
        color:#31363b;
      }
      .ColorScheme-Background{
        color:#eff0f1;
      }
      .ColorScheme-ViewText {
        color:#31363b;
      }
      .ColorScheme-ViewBackground{
        color:#fcfcfc;
      }
      .ColorScheme-ViewHover {
        color:#3daee9;
      }
      .ColorScheme-ViewFocus{
        color:#3daee9;
      }
      .ColorScheme-ButtonText {
        color:#31363b;
      }
      .ColorScheme-ButtonBackground{
        color:#eff0f1;
      }
      .ColorScheme-ButtonHover {
        color:#3daee9;
      }
      .ColorScheme-ButtonFocus{
        color:#3daee9;
      }</style>
    <style
       id="current-color-scheme-0"
       type="text/css">      .ColorScheme-Text {
        color:#31363b;
      }
      .ColorScheme-Background{
        color:#eff0f1;
      }
      .ColorScheme-ViewText {
        color:#31363b;
      }
      .ColorScheme-ViewBackground{
        color:#fcfcfc;
      }
      .ColorScheme-ViewHover {
        color:#3daee9;
      }
      .ColorScheme-ViewFocus{
        color:#3daee9;
      }
      .ColorScheme-ButtonText {
        color:#31363b;
      }
      .ColorScheme-ButtonBackground{
        color:#eff0f1;
      }
      .ColorScheme-ButtonHover {
        color:#3daee9;
      }
      .ColorScheme-ButtonFocus{
        color:#3daee9;
      }</style>
    <style
       id="current-color-scheme-6"
       type="text/css">      .ColorScheme-Text {
        color:#31363b;
      }
      .ColorScheme-Background{
        color:#eff0f1;
      }
      .ColorScheme-ViewText {
        color:#31363b;
      }
      .ColorScheme-ViewBackground{
        color:#fcfcfc;
      }
      .ColorScheme-ViewHover {
        color:#3daee9;
      }
      .ColorScheme-ViewFocus{
        color:#3daee9;
      }
      .ColorScheme-ButtonText {
        color:#31363b;
      }
      .ColorScheme-ButtonBackground{
        color:#eff0f1;
      }
      .ColorScheme-ButtonHover {
        color:#3daee9;
      }
      .ColorScheme-ButtonFocus{
        color:#3daee9;
      }</style>
    <clipPath
       id="clipPath4458">
      <path
         inkscape:connector-curvature="0"
         id="use4460"
         d="m 69.626,12.145 -0.052,0 c -22.727,-0.292 -46.472,4.077 -46.709,4.122 -2.424,0.451 -4.946,2.974 -5.397,5.397 -0.044,0.237 -4.414,23.983 -4.122,46.71 -0.292,22.777 4.078,46.523 4.122,46.761 0.451,2.423 2.974,4.945 5.398,5.398 0.237,0.044 23.982,4.413 46.709,4.121 22.779,0.292 46.524,-4.077 46.761,-4.121 2.423,-0.452 4.946,-2.976 5.398,-5.399 0.044,-0.236 4.413,-23.981 4.121,-46.709 0.292,-22.777 -4.077,-46.523 -4.121,-46.761 -0.453,-2.423 -2.976,-4.946 -5.398,-5.397 -0.238,-0.045 -23.984,-4.414 -46.71,-4.122 z" />
    </clipPath>
  </defs>
  <sodipodi:namedview
     id="base"
     pagecolor="#292f34"
     bordercolor="#666666"
     borderopacity="1.0"
     inkscape:pageopacity="1"
     inkscape:pageshadow="2"
     inkscape:zoom="4.0000001"
     inkscape:cx="-56.087624"
     inkscape:cy="-0.7783335"
     inkscape:document-units="px"
     inkscape:current-layer="layer1"
     showgrid="true"
     inkscape:window-width="1366"
     inkscape:window-height="684"
     inkscape:window-x="0"
     inkscape:window-y="0"
     inkscape:window-maximized="1"
     fit-margin-top="0"
     fit-margin-left="0"
     fit-margin-right="0"
     fit-margin-bottom="0"
     inkscape:showpageshadow="false">
    <inkscape:grid
       type="xygrid"
       id="grid3011"
       empspacing="5"
       visible="true"
       enabled="true"
       snapvisiblegridlinesonly="true"
       originx="53.952703px"
       originy="-4.7024px" />
  </sodipodi:namedview>
  <metadata
     id="metadata5053">
    <rdf:RDF>
      <cc:Work
         rdf:about="">
        <dc:format>image/svg+xml</dc:format>
        <dc:type
           rdf:resource="http://purl.org/dc/dcmitype/StillImage" />
        <dc:title></dc:title>
      </cc:Work>
    </rdf:RDF>
  </metadata>
  <g
     inkscape:label="Layer 1"
     inkscape:groupmode="layer"
     id="layer1"
     transform="translate(53.952703,-1015.6598)">
    <rect
       style="fill:#8b9299;fill-opacity:0;stroke:none"
       id="rect3024"
       width="20"
       height="60"
       x="864"
       y="543"
       transform="translate(0,52.36218)"
       ry="10" />
    <g
       id="g3"
       transform="matrix(0.10923888,0,0,0.10923888,-54.429522,1015.3285)"
       style="fill:#ffffff;fill-opacity:1">
      <path
         d="M 7.42,145.986 C 9.185,99.193 32.899,56.035 76.25,27.516 c 0.128,0.048 1.251,-0.361 0.738,0.61 -3.434,3.184 -65.172,76.114 -8.344,133.68 0,0 29.858,28.704 53.011,1.468 0,0 22.847,-29.577 -0.289,-74.413 0,0 -5.856,-14.64 -26.955,-23.721 l 16.992,-18.748 c 0,0 14.359,6.161 25.478,22.871 0,0 0.593,-17.593 -12.884,-36.34 l 26.345,-29.89 26.08,29.609 c 0,0 -11.993,16.991 -12.876,36.902 0,0 8.191,-13.477 25.776,-23.151 l 16.686,18.748 c 0,0 -16.045,5.287 -26.794,23.529 -9.242,16.902 -16.357,53.05 0.416,75.223 0,0 18.772,26.618 51.792,-1.571 0,0 60.712,-54.399 -6.226,-133.048 0,0 -3.658,-3.233 0.449,-1.476 29.586,21.54 65.012,49.946 68.67,120.837 -1.444,85.966 -59.012,147.334 -143.074,147.334 C 68.934,295.968 4.95,227.283 7.42,145.986"
         id="path5"
         inkscape:connector-curvature="0"
         style="fill:#ffffff;fill-opacity:1" />
    </g>
  </g>
</svg>
