<?xml version="1.0" encoding="UTF-8" standalone="no"?>
<!-- Created with Inkscape (http://www.inkscape.org/) -->

<svg
   xmlns:sketch="http://www.bohemiancoding.com/sketch/ns"
   xmlns:dc="http://purl.org/dc/elements/1.1/"
   xmlns:cc="http://creativecommons.org/ns#"
   xmlns:rdf="http://www.w3.org/1999/02/22-rdf-syntax-ns#"
   xmlns:svg="http://www.w3.org/2000/svg"
   xmlns="http://www.w3.org/2000/svg"
   xmlns:xlink="http://www.w3.org/1999/xlink"
   xmlns:sodipodi="http://sodipodi.sourceforge.net/DTD/sodipodi-0.dtd"
   xmlns:inkscape="http://www.inkscape.org/namespaces/inkscape"
   width="32"
   height="32"
   id="svg5453"
   version="1.1"
   inkscape:version="0.91 r13725"
   sodipodi:docname="folder-wifi.svg">
  <defs
     id="defs5455">
    <linearGradient
       inkscape:collect="always"
       xlink:href="#linearGradient4193"
       id="linearGradient4534"
       x1="59.12455"
       y1="-13.294993"
       x2="59.148849"
       y2="-37.783325"
       gradientUnits="userSpaceOnUse"
       gradientTransform="matrix(4.1747839,0,0,4.1676538,-1069.6998,447.73055)" />
    <linearGradient
       inkscape:collect="always"
       id="linearGradient4193">
      <stop
         style="stop-color:#289bf7;stop-opacity:1"
         offset="0"
         id="stop4195" />
      <stop
         style="stop-color:#71b9f1;stop-opacity:1"
         offset="1"
         id="stop4197" />
    </linearGradient>
    <linearGradient
       gradientTransform="matrix(7.9277484,0,0,7.9277484,-1273.2754,-154.3544)"
       gradientUnits="userSpaceOnUse"
       y2="64.160583"
       x2="71.801933"
       y1="101.17968"
       x1="72.161911"
       id="linearGradient4284-7-0"
       xlink:href="#linearGradient4314"
       inkscape:collect="always" />
    <linearGradient
       inkscape:collect="always"
       id="linearGradient4314">
      <stop
         style="stop-color:#9fd2fa;stop-opacity:1"
         offset="0"
         id="stop4316" />
      <stop
         style="stop-color:#cde8fe;stop-opacity:1"
         offset="1"
         id="stop4318" />
    </linearGradient>
    <linearGradient
       gradientTransform="matrix(7.9277471,0,0,7.9277471,-2010.8435,-3045.4453)"
       gradientUnits="userSpaceOnUse"
       y2="428.6745"
       x2="177.81706"
       y1="467.90091"
       x1="179.09601"
       id="linearGradient4284-7-0-1"
       xlink:href="#linearGradient4308"
       inkscape:collect="always" />
    <linearGradient
       id="linearGradient4308"
       inkscape:collect="always">
      <stop
         id="stop4310"
         offset="0"
         style="stop-color:#289bf7;stop-opacity:1" />
      <stop
         id="stop4312"
         offset="1"
         style="stop-color:#4caaf4;stop-opacity:1" />
    </linearGradient>
    <linearGradient
       inkscape:collect="always"
       xlink:href="#linearGradient4193"
       id="linearGradient4716"
       x1="-104.53581"
       y1="921.18817"
       x2="-102.46544"
       y2="746.91913"
       gradientUnits="userSpaceOnUse" />
  </defs>
  <sodipodi:namedview
     id="base"
     pagecolor="#ffffff"
     bordercolor="#666666"
     borderopacity="1.0"
     inkscape:pageopacity="0"
     inkscape:pageshadow="2"
     inkscape:zoom="15"
     inkscape:cx="15.133333"
     inkscape:cy="16.948198"
     inkscape:document-units="px"
     inkscape:current-layer="layer1"
     showgrid="true"
     fit-margin-top="0"
     fit-margin-left="0"
     fit-margin-right="0"
     fit-margin-bottom="0"
     inkscape:window-width="1366"
     inkscape:window-height="687"
     inkscape:window-x="0"
     inkscape:window-y="0"
     inkscape:window-maximized="1"
     inkscape:showpageshadow="false"
     borderlayer="true"
     showguides="true"
     inkscape:guide-bbox="true"
     inkscape:object-nodes="true"
     inkscape:snap-bbox="true">
    <inkscape:grid
       type="xygrid"
       id="grid4063" />
    <sodipodi:guide
       position="2.0000117,30.000026"
       orientation="28,0"
       id="guide4167" />
    <sodipodi:guide
       position="17,5"
       orientation="0,28"
       id="guide4169" />
    <sodipodi:guide
       position="30.000012,2.0000264"
       orientation="-28,0"
       id="guide4171" />
    <sodipodi:guide
       position="30.000012,30.000026"
       orientation="0,-28"
       id="guide4173" />
    <sodipodi:guide
       position="2.0000117,30.000026"
       orientation="28,0"
       id="guide4181" />
    <sodipodi:guide
       position="16.000012,30.000026"
       orientation="0,-14"
       id="guide4187" />
    <sodipodi:guide
       position="5.0000117,30.000026"
       orientation="28,0"
       id="guide4143" />
    <sodipodi:guide
       position="5.0000117,2.0000264"
       orientation="0,22"
       id="guide4145" />
    <sodipodi:guide
       position="27.000012,2.0000264"
       orientation="-28,0"
       id="guide4147" />
    <sodipodi:guide
       position="27.000012,30.000026"
       orientation="0,-22"
       id="guide4149" />
    <sodipodi:guide
       position="27,30"
       orientation="0,-7"
       id="guide4155" />
    <sodipodi:guide
       position="27.00001,23"
       orientation="-7,-1e-05"
       id="guide4162" />
    <sodipodi:guide
       position="24,27"
       orientation="0,1"
       id="guide3378" />
  </sodipodi:namedview>
  <metadata
     id="metadata5458">
    <rdf:RDF>
      <cc:Work
         rdf:about="">
        <dc:format>image/svg+xml</dc:format>
        <dc:type
           rdf:resource="http://purl.org/dc/dcmitype/StillImage" />
        <dc:title />
      </cc:Work>
    </rdf:RDF>
  </metadata>
  <g
     inkscape:label="Capa 1"
     inkscape:groupmode="layer"
     id="layer1"
     transform="translate(-384.57143,-515.798)">
    <g
       transform="matrix(0.07088627,0,0,0.07016952,407.86666,475.12785)"
       style="display:inline;fill:#60aae5;fill-opacity:1"
       id="g4721">
      <path
         style="color:#000000;display:inline;overflow:visible;visibility:visible;fill:url(#linearGradient4534);fill-opacity:1;fill-rule:nonzero;stroke:none;stroke-width:0.99992168;stroke-opacity:1;marker:none;enable-background:accumulate"
         id="rect8678-4-5-5-9"
         inkscape:connector-curvature="0"
         d="m -884.09987,294.78348 c -4.62566,0 -8.34918,3.71755 -8.34918,8.33531 l 0,161.40825 468.19182,1.00001 0,-121.19727 c 0,-4.61776 -3.7239,-8.3353 -8.34956,-8.3353 l -272.65225,0 c -8.5104,0.75134 -9.60667,-0.37701 -13.8121,-5.98088 -5.9637,-7.96762 -14.96889,-21.44253 -20.83998,-29.21462 -4.71246,-6.80467 -5.47678,-6.0155 -13.29224,-6.0155 z"
         sodipodi:nodetypes="scccssccccs"
         transform="matrix(0.78720228,0,0,0.79524319,415.34217,430.10746)" />
      <rect
         style="opacity:1;fill:url(#linearGradient4284-7-0);fill-opacity:1;stroke:url(#linearGradient4284-7-0);stroke-width:2.37832451;stroke-linecap:butt;stroke-linejoin:miter;stroke-miterlimit:4;stroke-dasharray:none;stroke-opacity:1"
         id="rect4158-4-0"
         width="463.84714"
         height="295.12872"
         x="-890.27637"
         y="356.84882"
         ry="9.629776"
         transform="matrix(0.78720228,0,0,0.79524319,415.34217,430.10746)" />
      <rect
         style="opacity:1;fill:none;fill-opacity:1;stroke:url(#linearGradient4284-7-0-1);stroke-width:5.37616777;stroke-linecap:round;stroke-linejoin:round;stroke-miterlimit:4;stroke-dasharray:none;stroke-opacity:1"
         id="rect4158-4-0-3"
         width="463.84711"
         height="295.12872"
         x="-890.27631"
         y="356.84882"
         ry="9.629776"
         transform="matrix(0.78720228,0,0,0.79524319,415.34217,430.10746)" />
      <path
         style="fill:url(#linearGradient4716);fill-opacity:1"
         sketch:type="MSShapeGroup"
         id="Remote-5"
         d="m -67.446998,887.52751 c -3.547248,0 -7.085708,-1.5396 -9.659132,-4.56329 -6.598678,-7.7725 -15.996998,-12.21518 -25.7952,-12.21518 -9.96335,0 -19.11829,4.31289 -25.77787,12.15025 -4.83384,5.70417 -13.07578,6.14018 -18.42266,0.96469 -5.33812,-5.16623 -5.74675,-13.9591 -0.90382,-19.64458 11.4935,-13.53233 27.93394,-21.29557 45.10458,-21.29557 17.144627,0 33.585077,7.78185 45.113384,21.34191 4.842528,5.6949 4.433891,14.4876 -0.903821,19.65382 -2.486489,2.42074 -5.625021,3.60795 -8.754844,3.60795 z m 28.933627,-34.80915 c -3.329784,0 -6.659664,-1.35422 -9.198271,-4.05315 -14.762465,-15.66555 -34.358758,-24.29131 -55.189688,-24.29131 -20.87435,0 -40.47935,8.60716 -55.21586,24.23555 -5.10334,5.41664 -13.36267,5.38884 -18.4399,-0.0554 -5.0774,-5.44442 -5.05999,-14.25573 0.0549,-19.67244 19.6485,-20.85023 45.7915,-32.33267 73.60371,-32.33267 27.768795,0 53.903018,11.50106 73.586245,32.38834 5.112121,5.41671 5.129591,14.22794 0.05495,19.68163 -2.547317,2.7177 -5.903208,4.09955 -9.250408,4.09955 z m 28.8728953,-34.75357 c -3.2428653,0 -6.4944223,-1.28929 -9.0243393,-3.86761 -22.769702,-23.28038 -52.677162,-36.09851 -84.236515,-36.09851 -31.62018,0 -61.54512,12.79952 -84.25391,36.06129 -5.19034,5.31464 -13.44961,5.13844 -18.43998,-0.40781 -4.99038,-5.54659 -4.81652,-14.35781 0.37312,-19.67237 27.59492,-28.25172 63.92727,-43.806 102.32014,-43.806 38.314577,0 74.638214,15.57281 102.28518979,43.83371 5.19912551,5.3148 5.37298651,14.12595 0.3919424,19.67245 -2.56472469,2.84741 -5.99022159,4.28501 -9.41557689,4.28501 z M -104.53581,921.18818 c 8.700372,0 15.75354,-7.13867 15.75354,-15.94461 0,-8.80584 -7.053168,-15.94452 -15.75354,-15.94452 -8.70043,0 -15.75361,7.13868 -15.75361,15.94452 0,8.80594 7.05318,15.94461 15.75361,15.94461 z"
         inkscape:connector-curvature="0" />
    </g>
  </g>
</svg>
