<?xml version="1.0" encoding="UTF-8" standalone="no"?>
<!-- Created with Inkscape (http://www.inkscape.org/) -->

<svg
   xmlns:dc="http://purl.org/dc/elements/1.1/"
   xmlns:cc="http://creativecommons.org/ns#"
   xmlns:rdf="http://www.w3.org/1999/02/22-rdf-syntax-ns#"
   xmlns:svg="http://www.w3.org/2000/svg"
   xmlns="http://www.w3.org/2000/svg"
   xmlns:sodipodi="http://sodipodi.sourceforge.net/DTD/sodipodi-0.dtd"
   xmlns:inkscape="http://www.inkscape.org/namespaces/inkscape"
   width="22"
   height="22"
   id="svg2"
   version="1.1"
   inkscape:version="0.91 r13725"
   viewBox="0 0 22 22"
   sodipodi:docname="object-locked.svg">
  <defs
     id="defs4">
    <linearGradient
       id="linearGradient4422-4">
      <stop
         id="stop4424-9"
         offset="0"
         style="stop-color:#ff9300;stop-opacity:1" />
      <stop
         id="stop4426-2"
         offset="1"
         style="stop-color:#ffd702;stop-opacity:1" />
    </linearGradient>
  </defs>
  <sodipodi:namedview
     id="base"
     pagecolor="#ffffff"
     bordercolor="#666666"
     borderopacity="1.0"
     inkscape:pageopacity="0.0"
     inkscape:pageshadow="2"
     inkscape:zoom="11.5"
     inkscape:cx="-14.460362"
     inkscape:cy="14.217391"
     inkscape:document-units="px"
     inkscape:current-layer="layer1"
     showgrid="true"
     inkscape:showpageshadow="false"
     borderlayer="true"
     units="px"
     inkscape:window-width="1366"
     inkscape:window-height="685"
     inkscape:window-x="0"
     inkscape:window-y="0"
     inkscape:window-maximized="1"
     inkscape:snap-bbox="true"
     showguides="true">
    <inkscape:grid
       type="xygrid"
       id="grid4062" />
    <sodipodi:guide
       position="0,22.000017"
       orientation="22,0"
       id="guide3338" />
    <sodipodi:guide
       position="0,1.7382813e-05"
       orientation="0,22"
       id="guide3340" />
    <sodipodi:guide
       position="22,1.7382813e-05"
       orientation="-22,0"
       id="guide3342" />
    <sodipodi:guide
       position="22,22.000017"
       orientation="0,-22"
       id="guide3344" />
    <sodipodi:guide
       position="3,19.000017"
       orientation="16,0"
       id="guide3348" />
    <sodipodi:guide
       position="3,3.0000174"
       orientation="0,16"
       id="guide3350" />
    <sodipodi:guide
       position="19,3.0000174"
       orientation="-16,0"
       id="guide3352" />
    <sodipodi:guide
       position="11,19"
       orientation="0,-16"
       id="guide3354" />
  </sodipodi:namedview>
  <metadata
     id="metadata7">
    <rdf:RDF>
      <cc:Work
         rdf:about="">
        <dc:format>image/svg+xml</dc:format>
        <dc:type
           rdf:resource="http://purl.org/dc/dcmitype/StillImage" />
        <dc:title></dc:title>
      </cc:Work>
    </rdf:RDF>
  </metadata>
  <g
     inkscape:label="Capa 1"
     inkscape:groupmode="layer"
     id="layer1"
     transform="translate(0,-1030.3622)">
    <g
       id="layer1-8"
       inkscape:label="Capa 1"
       transform="matrix(0.58864466,0,0,0.58864466,7.2099767,428.8499)"
       style="fill:#ffffff;fill-opacity:0.94715445;stroke:#f6f6f6;stroke-width:0.15665036;stroke-linecap:round;stroke-linejoin:round;stroke-miterlimit:4;stroke-dasharray:none;stroke-opacity:1">
      <g
         inkscape:label="Capa 1"
         id="layer1-7"
         transform="matrix(1.3308259,0,0,1.3308259,-3.9565145,-344.50953)"
         style="fill:#ffffff;fill-opacity:0.94715445;stroke:#f6f6f6;stroke-width:0.11770913;stroke-linecap:round;stroke-linejoin:round;stroke-miterlimit:4;stroke-dasharray:none;stroke-opacity:1">
        <path
           style="fill:#ffffff;fill-opacity:0.94715445;stroke:#f6f6f6;stroke-width:0.11770913;stroke-linecap:round;stroke-linejoin:round;stroke-miterlimit:4;stroke-dasharray:none;stroke-opacity:1"
           d="m 3.5552336,1046.7967 c -0.206068,-0.3872 -0.220771,-1.621 -0.03036,-2.548 0.412384,-2.0077 1.3073819,-3.8612 2.6183659,-5.4226 l 0.5194787,-0.6187 -2.3905706,-2.5307 7.2594804,0 c 0.004,0.1509 0,7.2849 0,7.2849 l -2.5517015,-2.3436 c -0.44065,0.1691 -2.8482397,2.4576 -3.5035167,3.3302 -0.446799,0.595 -0.972651,1.5879 -1.2470969,2.3546 -0.293324,0.8196 -0.442508,0.9288 -0.674076,0.4937 z"
           id="path4155"
           inkscape:connector-curvature="0"
           sodipodi:nodetypes="cssccccccccc" />
        <g
           id="g3"
           transform="matrix(-0.02029499,0.02017839,0.02017839,0.02029499,-6.1153794,1032.0879)"
           style="fill:#ffffff;fill-opacity:0.94715445;stroke:#f6f6f6;stroke-width:4.11295414;stroke-linecap:round;stroke-linejoin:round;stroke-miterlimit:4;stroke-dasharray:none;stroke-opacity:1" />
      </g>
    </g>
    <g
       transform="matrix(0.30769275,0,0,0.30769275,-225.57178,982.92101)"
       id="layer1-9"
       inkscape:label="Layer 1">
      <g
         transform="matrix(0.92857143,0,0,0.92857143,54.918368,13.566686)"
         id="g4418">
        <g
           transform="matrix(1.0833334,0,0,1.0833334,4.6915112,-23.628495)"
           id="g4176">
          <rect
             ry="25.846153"
             y="171.28809"
             x="679.53754"
             height="51.692307"
             width="51.69223"
             id="rect4160-4"
             style="fill:#4d4d4d;fill-opacity:0.98039216;stroke:none" />
        </g>
        <g
           style="fill:#342300;fill-opacity:1"
           inkscape:label="Capa 1"
           id="layer1-6"
           transform="matrix(1.8731307,0,0,1.8731307,748.13107,-1760.7154)">
          <g
             id="layer1-2"
             inkscape:label="Capa 1"
             transform="translate(0.05674466,0.08091695)"
             style="fill:#342300;fill-opacity:1">
            <path
               style="fill:#f6f6f6;fill-opacity:1"
               inkscape:connector-curvature="0"
               id="path3"
               d="m 15.926846,1040.1714 0,-1.9983 c 0,-2.7121 -2.206463,-4.9187 -4.918609,-4.9187 -2.7121476,0 -4.9186118,2.2066 -4.9186118,4.9187 l 0,1.9983 c -0.387614,0.081 -0.6796621,0.4259 -0.6796621,0.8373 l 0,7.4883 c 0,0.4717 0.3838071,0.8555 0.8555666,0.8555 l 9.4853693,0 c 0.471759,0 0.855566,-0.3838 0.855566,-0.8555 l 0,-7.4883 c 0,-0.4114 -0.292003,-0.7559 -0.679619,-0.8373 z m -3.769499,6.3834 c 0.01745,0.093 -0.04526,0.1682 -0.139371,0.1682 l -1.996764,0 c -0.094111,0 -0.1568262,-0.076 -0.1393725,-0.1682 l 0.3179295,-1.6849 c -0.2406715,-0.2195 -0.3917217,-0.5357 -0.3917217,-0.887 0,-0.6628 0.5373387,-1.2002 1.2001897,-1.2002 0.66285,0 1.200189,0.5374 1.200189,1.2002 0,0.3418 -0.143137,0.6499 -0.372472,0.8686 z m 2.058366,-6.4016 -6.4149539,0 0,-1.9801 c 0,-1.7686 1.4388492,-3.2074 3.2074779,-3.2074 1.768626,0 3.207476,1.4389 3.207476,3.2074 z"
               sodipodi:nodetypes="cssscssssssccssccsssccccsssc" />
          </g>
        </g>
      </g>
    </g>
  </g>
</svg>
