<?xml version="1.0" encoding="UTF-8" standalone="no"?>
<!-- Created with Inkscape (http://www.inkscape.org/) -->

<svg
   xmlns:dc="http://purl.org/dc/elements/1.1/"
   xmlns:cc="http://creativecommons.org/ns#"
   xmlns:rdf="http://www.w3.org/1999/02/22-rdf-syntax-ns#"
   xmlns:svg="http://www.w3.org/2000/svg"
   xmlns="http://www.w3.org/2000/svg"
   xmlns:sodipodi="http://sodipodi.sourceforge.net/DTD/sodipodi-0.dtd"
   xmlns:inkscape="http://www.inkscape.org/namespaces/inkscape"
   width="16"
   height="16"
   id="svg2"
   version="1.1"
   inkscape:version="0.91 r13725"
   viewBox="0 0 16 16"
   sodipodi:docname="drive-harddisk.svg">
  <defs
     id="defs4" />
  <sodipodi:namedview
     id="base"
     pagecolor="#ffffff"
     bordercolor="#666666"
     borderopacity="1.0"
     inkscape:pageopacity="0.0"
     inkscape:pageshadow="2"
     inkscape:zoom="18.194143"
     inkscape:cx="1.5140342"
     inkscape:cy="9.5778231"
     inkscape:document-units="px"
     inkscape:current-layer="g4164"
     showgrid="false"
     inkscape:showpageshadow="false"
     borderlayer="true"
     units="px"
     inkscape:window-width="1366"
     inkscape:window-height="685"
     inkscape:window-x="0"
     inkscape:window-y="0"
     inkscape:window-maximized="1">
    <inkscape:grid
       type="xygrid"
       id="grid4062" />
    <sodipodi:guide
       position="2,14.000017"
       orientation="12,0"
       id="guide4066" />
    <sodipodi:guide
       position="2,2.0000174"
       orientation="0,12"
       id="guide4068" />
    <sodipodi:guide
       position="14,2.0000174"
       orientation="-12,0"
       id="guide4070" />
    <sodipodi:guide
       position="14,14.000017"
       orientation="0,-12"
       id="guide4072" />
  </sodipodi:namedview>
  <metadata
     id="metadata7">
    <rdf:RDF>
      <cc:Work
         rdf:about="">
        <dc:format>image/svg+xml</dc:format>
        <dc:type
           rdf:resource="http://purl.org/dc/dcmitype/StillImage" />
        <dc:title />
      </cc:Work>
    </rdf:RDF>
  </metadata>
  <g
     inkscape:label="Capa 1"
     inkscape:groupmode="layer"
     id="layer1"
     transform="translate(0,-1036.3622)">
    <g
       id="g4164"
       transform="matrix(0.33041456,0,0,0.33041456,1.9623858,1038.6839)">
      <g
         id="g4149"
         transform="translate(-0.10468562,0.28141146)">
        <g
           transform="matrix(1.1483543,0,0,1.1483543,-2.2928463,-1.978147)"
           id="g4399">
          <g
             id="g4140"
             style="fill:#4d4d4d;fill-opacity:1">
            <path
               id="path4142"
               d="m 4.8,32.019455 c -0.5,0 -0.9,-0.343969 -1,-0.77393 L 3.1,26 l 8.1,0 13.6,0 8.1,0 -0.7,5.245525 c -0.1,0.429961 -0.5,0.77393 -1,0.77393 z"
               inkscape:connector-curvature="0"
               style="opacity:1;fill:none;fill-opacity:1"
               sodipodi:nodetypes="sccccccss" />
            <g
               id="g4144"
               style="fill:#4d4d4d;fill-opacity:1"
               transform="matrix(1,0,0,0.82171911,0,4.4570224)">
              <path
                 id="path4146"
                 d="m 31.8,27 -0.5,5 -26.5,0 -0.5,-5 6.4,0 14.8,0 6.3,0 M 34,25 24,25 2,25 2.4967786,32.2 c 0.1,1 0.6978671,1.8 1.6978671,1.8 l 27.7106433,0 c 1,0 1.597867,-0.8 1.697867,-1.8 z"
                 inkscape:connector-curvature="0"
                 sodipodi:nodetypes="cccccccccccsscc"
                 style="fill:#4d4d4d;fill-opacity:1" />
            </g>
          </g>
          <path
             inkscape:connector-curvature="0"
             id="path4148"
             d="m 6.7686925,0.49005148 c -1.0630063,0 -1.6993958,0.74268982 -1.8056965,1.80569612 l -2.8672268,22.6423374 0.2134005,1.06153 8.2897873,0 14.883315,0 7.862987,0 0.6402,-1.06153 L 31.112762,2.2957476 C 30.90016,1.2327413 30.375544,0.49005148 29.312538,0.49005148 l -22.5438455,0 z M 14.932629,6.2409206 A 0.97218894,0.84137798 0 0 1 15.90661,7.0835788 0.97218894,0.84137798 0 0 1 14.932629,7.9262369 0.97218894,0.84137798 0 0 1 13.964118,7.0835788 0.97218894,0.84137798 0 0 1 14.932629,6.2409206 Z m 4.864436,0 5.832947,5.0504784 -5.832947,5.045005 -1.947963,-1.679844 3.890454,-3.365161 -3.890454,-3.3651621 1.947963,-1.6853163 z m -7.780909,5.0504784 a 1.9443682,1.6827475 0 0 1 1.947962,1.679844 1.9443682,1.6827475 0 0 1 -1.947962,1.685317 1.9443682,1.6827475 0 0 1 -1.942492,-1.685317 1.9443682,1.6827475 0 0 1 1.942492,-1.679844 z m 3.890454,5.045005 a 1.9443682,1.6827475 0 0 1 1.942492,1.685317 1.9443682,1.6827475 0 0 1 -1.942492,1.679844 1.9443682,1.6827475 0 0 1 -1.942492,-1.679844 1.9443682,1.6827475 0 0 1 1.942492,-1.685317 z"
             style="fill:#4d4d4d;fill-opacity:1;stroke:none;stroke-width:0.75886595;stroke-linejoin:round;stroke-miterlimit:10;stroke-opacity:1" />
        </g>
      </g>
    </g>
    <g
       transform="translate(-415.54483,508.82119)"
       id="layer1-6"
       inkscape:label="Capa 1">
      <g
         transform="translate(400.14523,-508.46478)"
         id="layer1-9"
         inkscape:label="Capa 1">
        <g
           inkscape:label="Capa 1"
           id="layer1-6-2"
           transform="translate(-400.1003,508.43645)">
          <g
             inkscape:label="Capa 1"
             id="layer1-5"
             transform="matrix(0.81923526,0,0,0.81923526,84.164129,91.100876)" />
        </g>
      </g>
    </g>
  </g>
</svg>
