<?xml version="1.0" encoding="UTF-8" standalone="no"?>
<!-- Created with Inkscape (http://www.inkscape.org/) -->

<svg
   xmlns:sketch="http://www.bohemiancoding.com/sketch/ns"
   xmlns:osb="http://www.openswatchbook.org/uri/2009/osb"
   xmlns:dc="http://purl.org/dc/elements/1.1/"
   xmlns:cc="http://creativecommons.org/ns#"
   xmlns:rdf="http://www.w3.org/1999/02/22-rdf-syntax-ns#"
   xmlns:svg="http://www.w3.org/2000/svg"
   xmlns="http://www.w3.org/2000/svg"
   xmlns:xlink="http://www.w3.org/1999/xlink"
   xmlns:sodipodi="http://sodipodi.sourceforge.net/DTD/sodipodi-0.dtd"
   xmlns:inkscape="http://www.inkscape.org/namespaces/inkscape"
   width="64"
   height="64"
   id="svg5453"
   version="1.1"
   inkscape:version="0.91 r13725"
   sodipodi:docname="folder-wifi.svg">
  <defs
     id="defs5455">
    <linearGradient
       osb:paint="gradient"
       id="linearGradient4207">
      <stop
         id="stop3371"
         offset="0"
         style="stop-color:#3498db;stop-opacity:1;" />
      <stop
         id="stop3373"
         offset="1"
         style="stop-color:#3498db;stop-opacity:0;" />
    </linearGradient>
    <linearGradient
       inkscape:collect="always"
       xlink:href="#linearGradient4193"
       id="linearGradient4534"
       x1="59.12455"
       y1="-13.294993"
       x2="59.148849"
       y2="-37.783325"
       gradientUnits="userSpaceOnUse"
       gradientTransform="matrix(4.1747839,0,0,4.1676538,-1066.1155,447.73055)" />
    <linearGradient
       inkscape:collect="always"
       id="linearGradient4193">
      <stop
         style="stop-color:#289bf7;stop-opacity:1"
         offset="0"
         id="stop4195" />
      <stop
         style="stop-color:#71b9f1;stop-opacity:1"
         offset="1"
         id="stop4197" />
    </linearGradient>
    <linearGradient
       gradientTransform="matrix(7.9277484,0,0,7.9277484,-1273.2754,-154.3544)"
       gradientUnits="userSpaceOnUse"
       y2="64.160583"
       x2="71.801933"
       y1="101.17968"
       x1="72.161911"
       id="linearGradient4284-7-0"
       xlink:href="#linearGradient4472"
       inkscape:collect="always" />
    <linearGradient
       id="linearGradient4472"
       inkscape:collect="always">
      <stop
         id="stop4474"
         offset="0"
         style="stop-color:#93cfff;stop-opacity:1" />
      <stop
         id="stop4476"
         offset="1"
         style="stop-color:#cde8fe;stop-opacity:1" />
    </linearGradient>
    <linearGradient
       inkscape:collect="always"
       xlink:href="#linearGradient4193"
       id="linearGradient7224"
       x1="482.02209"
       y1="539.7995"
       x2="482.94406"
       y2="518.2063"
       gradientUnits="userSpaceOnUse"
       gradientTransform="matrix(1.0628003,0,0,1.0628003,-79.179027,-21.237361)" />
  </defs>
  <sodipodi:namedview
     id="base"
     pagecolor="#8f8f8f"
     bordercolor="#666666"
     borderopacity="1.0"
     inkscape:pageopacity="0"
     inkscape:pageshadow="2"
     inkscape:zoom="6.0811183"
     inkscape:cx="-24.521289"
     inkscape:cy="28.356059"
     inkscape:document-units="px"
     inkscape:current-layer="layer1-1"
     showgrid="false"
     fit-margin-top="0"
     fit-margin-left="0"
     fit-margin-right="0"
     fit-margin-bottom="0"
     inkscape:window-width="1366"
     inkscape:window-height="687"
     inkscape:window-x="0"
     inkscape:window-y="0"
     inkscape:window-maximized="1"
     inkscape:showpageshadow="false"
     borderlayer="true"
     inkscape:snap-bbox="true"
     inkscape:snap-global="true"
     showguides="false">
    <sodipodi:guide
       position="6.0000117,57.999996"
       orientation="51.999969,0"
       id="guide4097" />
    <sodipodi:guide
       position="6.0000117,6.0000264"
       orientation="0,52"
       id="guide4099" />
    <sodipodi:guide
       position="58.000012,6.0000264"
       orientation="-51.999969,0"
       id="guide4101" />
    <sodipodi:guide
       position="58.000012,57.999996"
       orientation="0,-52"
       id="guide4103" />
    <sodipodi:guide
       position="3.0000117,60.999996"
       orientation="57.999969,0"
       id="guide4105" />
    <sodipodi:guide
       position="3.0000117,3.0000264"
       orientation="0,58"
       id="guide4107" />
    <sodipodi:guide
       position="61.000012,3.0000264"
       orientation="-57.999969,0"
       id="guide4109" />
    <sodipodi:guide
       position="61.000012,60.999996"
       orientation="0,-58"
       id="guide4111" />
    <inkscape:grid
       type="xygrid"
       id="grid4115" />
    <sodipodi:guide
       position="20.000012,38.999996"
       orientation="23.999969,0"
       id="guide4129" />
    <sodipodi:guide
       position="20.000012,15.000026"
       orientation="0,24"
       id="guide4131" />
    <sodipodi:guide
       position="44.000012,15.000026"
       orientation="-23.999969,0"
       id="guide4133" />
    <sodipodi:guide
       position="44.000012,38.999996"
       orientation="0,-24"
       id="guide4135" />
    <sodipodi:guide
       position="22.000015,36.999992"
       orientation="19.999975,0"
       id="guide4137" />
    <sodipodi:guide
       position="22.000015,17.000017"
       orientation="0,20"
       id="guide4139" />
    <sodipodi:guide
       position="42.000015,17.000017"
       orientation="-19.999975,0"
       id="guide4141" />
    <sodipodi:guide
       position="22.000012,36.999996"
       orientation="7.9999695,0"
       id="guide4187" />
    <sodipodi:guide
       position="30.000012,36.999996"
       orientation="0,-8"
       id="guide4193" />
    <sodipodi:guide
       position="26.000012,17.000026"
       orientation="0,12"
       id="guide4300" />
  </sodipodi:namedview>
  <metadata
     id="metadata5458">
    <rdf:RDF>
      <cc:Work
         rdf:about="">
        <dc:format>image/svg+xml</dc:format>
        <dc:type
           rdf:resource="http://purl.org/dc/dcmitype/StillImage" />
        <dc:title />
      </cc:Work>
    </rdf:RDF>
  </metadata>
  <g
     inkscape:label="Capa 1"
     inkscape:groupmode="layer"
     id="layer1"
     transform="translate(-384.57143,-483.798)">
    <g
       transform="translate(547.69352,-328.64093)"
       id="layer1-1"
       inkscape:label="Capa 1">
      <g
         id="g4265"
         transform="matrix(0.12613922,0,0,0.12613922,-162.53176,751.54587)">
        <g
           transform="matrix(7.5989674,0,0,7.5989674,-3047.8954,-3342.2557)"
           id="g7228">
          <path
             sodipodi:nodetypes="scccssccccs"
             d="m -880.51558,294.78348 c -4.62566,0 -8.34918,3.71755 -8.34918,8.33531 l 0,161.40825 461.02382,1.00001 0,-121.19727 c 0,-4.61776 -3.7239,-8.3353 -8.34956,-8.3353 l -265.48425,0 c -8.5104,0.75134 -9.60667,-0.37701 -13.8121,-5.98088 -5.9637,-7.96762 -14.96889,-21.44253 -20.83998,-29.21462 -4.71246,-6.80467 -5.47678,-6.0155 -13.29224,-6.0155 z"
             inkscape:connector-curvature="0"
             id="rect8678-4-5-5-9"
             style="color:#000000;display:inline;overflow:visible;visibility:visible;fill:url(#linearGradient4534);fill-opacity:1;fill-rule:nonzero;stroke:none;stroke-width:0.99992168;stroke-opacity:1;marker:none;enable-background:accumulate"
             transform="matrix(0.13159683,0,0,0.13159683,520.49916,474.37069)" />
          <rect
             ry="9.629776"
             y="356.84882"
             x="-890.27637"
             height="295.12872"
             width="463.84714"
             id="rect4158-4-0"
             style="opacity:1;fill:url(#linearGradient4284-7-0);fill-opacity:1;stroke:url(#linearGradient4284-7-0);stroke-width:2.37832451;stroke-linecap:butt;stroke-linejoin:miter;stroke-miterlimit:4;stroke-dasharray:none;stroke-opacity:1"
             transform="matrix(0.13159683,0,0,0.13159683,520.49916,474.37069)" />
          <path
             inkscape:connector-curvature="0"
             d="m 438.67074,547.81649 c -0.48094,0 -0.96068,-0.20663 -1.30959,-0.61244 -0.89466,-1.04315 -2.16889,-1.6394 -3.49734,-1.6394 -1.35084,0 -2.59207,0.57883 -3.49498,1.63068 -0.65538,0.76556 -1.77283,0.82408 -2.49776,0.12947 -0.72375,-0.69336 -0.77915,-1.87345 -0.12255,-2.6365 1.5583,-1.81617 3.78731,-2.85808 6.11533,-2.85808 2.32448,0 4.55349,1.04441 6.11651,2.8643 0.65655,0.76431 0.60115,1.94438 -0.12254,2.63774 -0.33712,0.32489 -0.76265,0.48423 -1.18699,0.48423 z m 3.92285,-4.67174 c -0.45145,0 -0.90292,-0.18175 -1.24711,-0.54398 -2.00151,-2.10247 -4.65839,-3.26014 -7.48267,-3.26014 -2.83016,0 -5.48822,1.15517 -7.48621,3.25266 -0.69192,0.72697 -1.81173,0.72324 -2.5001,-0.007 -0.6884,-0.73069 -0.68604,-1.91326 0.007,-2.64024 2.66396,-2.79831 6.20845,-4.33937 9.97926,-4.33937 3.76491,0 7.30822,1.54356 9.97689,4.34684 0.6931,0.72698 0.69547,1.90954 0.007,2.64148 -0.34537,0.36474 -0.80037,0.5502 -1.25418,0.5502 z m 3.91461,-4.66428 c -0.43967,0 -0.88052,-0.17304 -1.22352,-0.51908 -3.08714,-3.12446 -7.14202,-4.84478 -11.42087,-4.84478 -4.28709,0 -8.34434,1.71782 -11.42322,4.83979 -0.70371,0.71328 -1.82351,0.68963 -2.50011,-0.0547 -0.6766,-0.74441 -0.65303,-1.92697 0.0506,-2.64023 3.74134,-3.79167 8.66732,-5.87921 13.87266,-5.87921 5.19472,0 10.11952,2.09002 13.86792,5.88293 0.7049,0.71329 0.72847,1.89584 0.0531,2.64024 -0.34773,0.38215 -0.81216,0.57509 -1.27658,0.57509 z m -12.86599,13.85362 c 1.1796,0 2.13588,-0.95808 2.13588,-2.13993 0,-1.18183 -0.95628,-2.13991 -2.13588,-2.13991 -1.17961,0 -2.13589,0.95808 -2.13589,2.13991 0,1.18185 0.95628,2.13993 2.13589,2.13993 z"
             id="Remote-5-5"
             sketch:type="MSShapeGroup"
             style="fill:url(#linearGradient7224);fill-opacity:1" />
        </g>
      </g>
    </g>
  </g>
</svg>
