<?xml version="1.0" encoding="UTF-8" standalone="no"?>
<!-- Created with Inkscape (http://www.inkscape.org/) -->

<svg
   xmlns:dc="http://purl.org/dc/elements/1.1/"
   xmlns:cc="http://creativecommons.org/ns#"
   xmlns:rdf="http://www.w3.org/1999/02/22-rdf-syntax-ns#"
   xmlns:svg="http://www.w3.org/2000/svg"
   xmlns="http://www.w3.org/2000/svg"
   xmlns:sodipodi="http://sodipodi.sourceforge.net/DTD/sodipodi-0.dtd"
   xmlns:inkscape="http://www.inkscape.org/namespaces/inkscape"
   width="22"
   height="22"
   id="svg3869"
   version="1.1"
   inkscape:version="0.91 r13725"
   sodipodi:docname="gtk-connect.svg">
  <defs
     id="defs3871" />
  <sodipodi:namedview
     id="base"
     pagecolor="#ffffff"
     bordercolor="#666666"
     borderopacity="1.0"
     inkscape:pageopacity="0.0"
     inkscape:pageshadow="2"
     inkscape:zoom="7.9999997"
     inkscape:cx="-1.0222889"
     inkscape:cy="5.3454873"
     inkscape:document-units="px"
     inkscape:current-layer="layer1"
     showgrid="true"
     fit-margin-top="0"
     fit-margin-left="0"
     fit-margin-right="0"
     fit-margin-bottom="0"
     inkscape:window-width="1366"
     inkscape:window-height="687"
     inkscape:window-x="0"
     inkscape:window-y="0"
     inkscape:window-maximized="1"
     inkscape:showpageshadow="false"
     inkscape:snap-bbox="true"
     inkscape:object-nodes="true">
    <inkscape:grid
       type="xygrid"
       id="grid4132" />
    <sodipodi:guide
       position="4,18"
       orientation="18,0"
       id="guide4138" />
    <sodipodi:guide
       position="5,3"
       orientation="0,18"
       id="guide4140" />
    <sodipodi:guide
       position="20,2.0000174"
       orientation="-18,0"
       id="guide4142" />
    <sodipodi:guide
       position="2,21"
       orientation="0,-18"
       id="guide4144" />
    <sodipodi:guide
       position="3,19.000017"
       orientation="16,0"
       id="guide4146" />
    <sodipodi:guide
       position="2,4"
       orientation="0,16"
       id="guide4148" />
    <sodipodi:guide
       position="21,20"
       orientation="-16,0"
       id="guide4150" />
    <sodipodi:guide
       position="2,20"
       orientation="0,-16"
       id="guide4152" />
  </sodipodi:namedview>
  <metadata
     id="metadata3874">
    <rdf:RDF>
      <cc:Work
         rdf:about="">
        <dc:format>image/svg+xml</dc:format>
        <dc:type
           rdf:resource="http://purl.org/dc/dcmitype/StillImage" />
        <dc:title />
      </cc:Work>
    </rdf:RDF>
  </metadata>
  <g
     inkscape:label="Capa 1"
     inkscape:groupmode="layer"
     id="layer1"
     transform="translate(-326,-534.3622)">
    <g
       transform="matrix(1.3333056,0,0,1.3333056,326.33556,534.70625)"
       id="g3"
       style="fill:#4d4d4d;fill-opacity:1">
      <path
         inkscape:connector-curvature="0"
         style="fill:#4d4d4d;fill-opacity:1"
         d="M 6.357,7.515 C 6.166,7.542 5.985,7.635 5.854,7.775 L 4.663,8.963 C 4.503,9.118 4.407,9.336 4.402,9.558 l 0,1.188 c 0,0.005 0,0.012 0,0.019 l -2.229,2.2 c -0.233,0.233 -0.233,0.621 0,0.854 0.234,0.231 0.623,0.231 0.856,0 l 2.228,-2.219 1.191,0 c 0.222,-0.006 0.44,-0.101 0.596,-0.26 l 1.19,-1.188 C 8.54,9.837 8.54,9.278 8.234,8.964 L 7.044,7.776 C 6.869,7.593 6.609,7.494 6.357,7.515 Z"
         id="path5" />
      <path
         inkscape:connector-curvature="0"
         style="fill:#4d4d4d;fill-opacity:1"
         d="m 9.643,8.469 c 0.19,-0.026 0.37,-0.12 0.502,-0.26 l 1.19,-1.187 c 0.161,-0.155 0.256,-0.373 0.261,-0.595 l 0,-1.189 c 0,-0.006 0,-0.012 0,-0.018 l 2.228,-2.201 c 0.233,-0.232 0.233,-0.621 0,-0.853 -0.233,-0.232 -0.623,-0.232 -0.856,0 l -2.228,2.218 -1.19,0 C 9.327,4.389 9.109,4.485 8.954,4.645 L 7.763,5.832 c -0.306,0.315 -0.306,0.874 0,1.189 L 8.954,8.208 C 9.13,8.391 9.389,8.49 9.643,8.469 Z"
         id="path7" />
    </g>
  </g>
</svg>
